<svg width="270" height="86" viewBox="0 0 270 86" fill="none" xmlns="http://www.w3.org/2000/svg">
<mask id="mask0_224_806" style="mask-type:alpha" maskUnits="userSpaceOnUse" x="0" y="0" width="270" height="86">
<path d="M247.939 64.3032C243.963 64.3032 240.348 63.377 237.095 61.5247C233.894 59.6723 231.364 57.0525 229.505 53.6654C227.698 50.2253 226.795 46.256 226.795 41.7574C226.795 37.3117 227.724 33.3953 229.583 30.0082C231.493 26.5681 234.075 23.9483 237.328 22.1489C240.581 20.2965 244.221 19.3704 248.248 19.3704C252.276 19.3704 255.916 20.2965 259.169 22.1489C262.422 23.9483 264.978 26.5416 266.836 29.9288C268.747 33.3159 269.702 37.2588 269.702 41.7574C269.702 46.256 268.721 50.2253 266.759 53.6654C264.848 57.0525 262.241 59.6723 258.936 61.5247C255.632 63.377 251.966 64.3032 247.939 64.3032ZM247.939 57.9523C250.469 57.9523 252.844 57.3436 255.064 56.1264C257.284 54.9091 259.066 53.0832 260.408 50.6487C261.802 48.2142 262.499 45.2504 262.499 41.7574C262.499 38.2644 261.828 35.3006 260.485 32.8661C259.143 30.4316 257.387 28.6321 255.219 27.4678C253.05 26.2505 250.701 25.6419 248.171 25.6419C245.589 25.6419 243.214 26.2505 241.045 27.4678C238.928 28.6321 237.225 30.4316 235.934 32.8661C234.643 35.3006 233.997 38.2644 233.997 41.7574C233.997 45.3033 234.617 48.2936 235.856 50.7281C237.147 53.1626 238.851 54.9885 240.968 56.2058C243.085 57.3701 245.408 57.9523 247.939 57.9523Z" fill="black"/>
<path d="M207.583 27.1503C208.822 24.6628 210.578 22.7311 212.85 21.3551C215.173 19.979 217.987 19.291 221.292 19.291V26.7534H219.433C211.533 26.7534 207.583 31.1461 207.583 39.9315V63.5887H200.535V20.0849H207.583V27.1503Z" fill="black"/>
<path d="M191.776 24.4512C191.776 29.0556 190.227 32.8927 187.129 35.9623C184.082 38.979 179.409 40.4873 173.11 40.4873H162.732V63.5888H155.684V8.25635H173.11C179.203 8.25635 183.824 9.76469 186.974 12.7814C190.175 15.7981 191.776 19.688 191.776 24.4512ZM173.11 34.5333C177.034 34.5333 179.926 33.6601 181.785 31.9136C183.643 30.1671 184.573 27.6796 184.573 24.4512C184.573 17.624 180.752 14.2103 173.11 14.2103H162.732V34.5333H173.11Z" fill="black"/>
<path d="M138.341 14.6865C136.018 14.6865 134.107 13.9985 132.61 12.6225C131.164 11.1935 130.441 9.44701 130.441 7.38296C130.441 5.26598 131.164 3.51947 132.61 2.14344C134.107 0.714479 136.018 0 138.341 0C140.613 0 142.472 0.714479 143.918 2.14344C145.415 3.51947 146.164 5.26598 146.164 7.38296C146.164 9.44701 145.415 11.1935 143.918 12.6225C142.472 13.9985 140.613 14.6865 138.341 14.6865ZM144.924 19.291V63.5887H131.68V19.291H144.924Z" fill="black"/>
<path d="M95.5335 18.6558C98.5799 18.6558 101.239 19.2909 103.511 20.561C105.834 21.8312 107.616 23.4983 108.855 25.5624V19.2909H122.099V63.5092C122.099 67.5844 121.299 71.2626 119.698 74.5439C118.149 77.8782 115.748 80.5244 112.495 82.4826C109.294 84.4408 105.292 85.4199 100.49 85.4199C94.0878 85.4199 88.8986 83.8586 84.9228 80.7361C80.9471 77.6665 78.6752 73.4855 78.1072 68.193H91.1963C91.6094 69.8866 92.5904 71.2097 94.1394 72.1623C95.6884 73.1679 97.5989 73.6707 99.8707 73.6707C102.607 73.6707 104.776 72.8504 106.377 71.2097C108.029 69.622 108.855 67.0551 108.855 63.5092V57.2377C107.564 59.3017 105.783 60.9953 103.511 62.3184C101.239 63.5886 98.5799 64.2237 95.5335 64.2237C91.9708 64.2237 88.7437 63.2975 85.8522 61.4451C82.9608 59.5399 80.6631 56.8672 78.9592 53.4271C77.3069 49.9341 76.4808 45.9118 76.4808 41.3603C76.4808 36.8088 77.3069 32.813 78.9592 29.373C80.6631 25.9329 82.9608 23.2866 85.8522 21.4343C88.7437 19.5819 91.9708 18.6558 95.5335 18.6558ZM108.855 41.4397C108.855 38.0526 107.926 35.3799 106.067 33.4217C104.26 31.4635 102.039 30.4844 99.406 30.4844C96.7727 30.4844 94.5267 31.4635 92.6679 33.4217C90.8607 35.327 89.9571 37.9732 89.9571 41.3603C89.9571 44.7475 90.8607 47.4466 92.6679 49.4578C94.5267 51.416 96.7727 52.3951 99.406 52.3951C102.039 52.3951 104.26 51.416 106.067 49.4578C107.926 47.4996 108.855 44.8269 108.855 41.4397Z" fill="black"/>
<path d="M62.9331 14.6865C60.6096 14.6865 58.6992 13.9985 57.2018 12.6225C55.7561 11.1935 55.0332 9.44701 55.0332 7.38296C55.0332 5.26598 55.7561 3.51947 57.2018 2.14344C58.6992 0.714479 60.6096 0 62.9331 0C65.205 0 67.0638 0.714479 68.5095 2.14344C70.0069 3.51947 70.7556 5.26598 70.7556 7.38296C70.7556 9.44701 70.0069 11.1935 68.5095 12.6225C67.0638 13.9985 65.205 14.6865 62.9331 14.6865ZM69.5164 19.291V63.5887H56.2724V19.291H69.5164Z" fill="black"/>
<path d="M20.3694 7.85925C26.1007 7.85925 31.1091 9.02359 35.3947 11.3523C39.6803 13.6809 42.9848 16.9622 45.3083 21.1962C47.6835 25.3772 48.871 30.2198 48.871 35.724C48.871 41.1752 47.6835 46.0177 45.3083 50.2517C42.9848 54.4857 39.6545 57.767 35.3173 60.0956C31.0317 62.4243 26.0491 63.5887 20.3694 63.5887H0V7.85925H20.3694ZM19.5174 51.8394C24.5259 51.8394 28.4242 50.4369 31.2124 47.6319C34.0006 44.827 35.3947 40.8576 35.3947 35.724C35.3947 30.5903 34.0006 26.5945 31.2124 23.7366C28.4242 20.8787 24.5259 19.4497 19.5174 19.4497H13.244V51.8394H19.5174Z" fill="black"/>
</mask>
<g mask="url(#mask0_224_806)">
<rect x="-8.24408" y="-6.97717" width="278.82" height="91.7356" fill="url(#paint0_linear_224_806)"/>
<rect x="-8.24408" y="-6.97717" width="278.82" height="91.7356" fill="url(#paint1_linear_224_806)"/>
</g>
<defs>
<linearGradient id="paint0_linear_224_806" x1="-8.24408" y1="38.8906" x2="270.576" y2="38.8906" gradientUnits="userSpaceOnUse">
<stop stop-color="#7C3AED"/>
<stop offset="1" stop-color="#6366F1"/>
</linearGradient>
<linearGradient id="paint1_linear_224_806" x1="-8.24408" y1="38.8906" x2="270.576" y2="38.8906" gradientUnits="userSpaceOnUse">
<stop stop-color="#7C3AED"/>
<stop offset="1" stop-color="#6366F1"/>
</linearGradient>
</defs>
</svg>
